<svg xmlns="http://www.w3.org/2000/svg" width="500" height="500" viewBox="0 0 500 500" version="1.1"><path d="M 241.750 6.743 C 245.738 6.932, 252.262 6.932, 256.250 6.743 C 260.238 6.553, 256.975 6.397, 249 6.397 C 241.025 6.397, 237.762 6.553, 241.750 6.743 M 415.500 72 C 417.648 74.200, 419.631 76, 419.906 76 C 420.181 76, 418.648 74.200, 416.500 72 C 414.352 69.800, 412.369 68, 412.094 68 C 411.819 68, 413.352 69.800, 415.500 72 M 75.477 78.250 L 67.500 86.500 75.750 78.523 C 83.412 71.115, 84.456 70, 83.727 70 C 83.576 70, 79.864 73.713, 75.477 78.250 M 426 82.313 C 426 82.485, 427.462 83.948, 429.250 85.563 L 432.500 88.500 429.563 85.250 C 426.825 82.221, 426 81.540, 426 82.313 M 62.437 92.250 L 59.500 95.500 62.750 92.563 C 64.537 90.948, 66 89.485, 66 89.313 C 66 88.540, 65.175 89.221, 62.437 92.250 M 199.473 207 C 199.473 245.225, 199.598 260.862, 199.750 241.750 C 199.902 222.637, 199.902 191.362, 199.750 172.250 C 199.598 153.137, 199.473 168.775, 199.473 207 M 351.472 204.500 C 351.472 241.350, 351.597 256.280, 351.750 237.677 C 351.902 219.075, 351.902 188.925, 351.749 170.677 C 351.597 152.430, 351.472 167.650, 351.472 204.500 M 5.232 231 C 5.232 232.925, 5.438 233.713, 5.689 232.750 C 5.941 231.787, 5.941 230.213, 5.689 229.250 C 5.438 228.287, 5.232 229.075, 5.232 231 M 493.400 250.500 C 493.401 258.750, 493.556 261.992, 493.744 257.704 C 493.932 253.417, 493.931 246.667, 493.742 242.704 C 493.552 238.742, 493.399 242.250, 493.400 250.500 M 5.252 270.500 C 5.263 272.700, 5.468 273.482, 5.707 272.238 C 5.946 270.994, 5.937 269.194, 5.687 268.238 C 5.437 267.282, 5.241 268.300, 5.252 270.500 M 147.232 282 C 147.232 283.925, 147.438 284.712, 147.689 283.750 C 147.941 282.788, 147.941 281.212, 147.689 280.250 C 147.438 279.288, 147.232 280.075, 147.232 282 M 246.250 326.716 C 247.762 326.945, 250.238 326.945, 251.750 326.716 C 253.262 326.487, 252.025 326.300, 249 326.300 C 245.975 326.300, 244.738 326.487, 246.250 326.716 M 331 339 C 329.825 340.650, 329.089 342, 329.364 342 C 329.639 342, 330.825 340.650, 332 339 C 333.175 337.350, 333.911 336, 333.636 336 C 333.361 336, 332.175 337.350, 331 339 M 236.750 374.706 C 237.988 374.944, 240.012 374.944, 241.250 374.706 C 242.488 374.467, 241.475 374.272, 239 374.272 C 236.525 374.272, 235.512 374.467, 236.750 374.706 M 253.264 374.718 C 254.784 374.947, 257.034 374.941, 258.264 374.704 C 259.494 374.467, 258.250 374.279, 255.500 374.286 C 252.750 374.294, 251.744 374.488, 253.264 374.718 M 419.971 425.750 L 413.500 432.500 420.250 426.029 C 423.962 422.470, 427 419.432, 427 419.279 C 427 418.543, 425.982 419.480, 419.971 425.750 M 245.250 495.728 C 247.313 495.944, 250.688 495.944, 252.750 495.728 C 254.813 495.513, 253.125 495.336, 249 495.336 C 244.875 495.336, 243.188 495.513, 245.250 495.728" stroke="none" fill="#04341c" fill-rule="evenodd"/><path d="M 227.345 7.273 C 227.980 7.699, 226.070 7.744, 223.099 7.375 C 219.178 6.886, 217.890 7.014, 218.401 7.839 C 218.907 8.659, 217.791 8.796, 214.395 8.331 C 211.427 7.924, 209.910 8.046, 210.291 8.662 C 210.654 9.250, 209.665 9.458, 207.805 9.185 C 205.523 8.850, 204.916 9.056, 205.483 9.973 C 206.062 10.909, 205.482 11.045, 203.125 10.527 C 201.105 10.084, 200 10.230, 200 10.940 C 200 11.628, 199.012 11.790, 197.351 11.373 C 195.505 10.910, 194.914 11.051, 195.401 11.839 C 195.893 12.636, 195.152 12.780, 192.894 12.329 C 190.746 11.899, 189.906 12.038, 190.346 12.751 C 190.759 13.419, 190.260 13.619, 189.001 13.290 C 187.901 13.002, 187 13.227, 187 13.790 C 187 14.352, 186.030 14.559, 184.844 14.249 C 183.274 13.838, 182.900 14.029, 183.469 14.950 C 184.045 15.881, 183.691 16.037, 182.125 15.540 C 180.951 15.167, 180 15.301, 180 15.839 C 180 16.375, 179.030 16.559, 177.844 16.249 C 176.462 15.888, 175.924 16.067, 176.345 16.749 C 176.766 17.431, 176.228 17.611, 174.845 17.249 C 173.462 16.888, 172.924 17.067, 173.345 17.749 C 173.766 18.431, 173.228 18.611, 171.845 18.249 C 170.274 17.838, 169.900 18.029, 170.469 18.950 C 171.051 19.892, 170.676 20.032, 169 19.500 C 167.479 19.017, 166.969 19.141, 167.427 19.881 C 167.851 20.568, 167.525 20.755, 166.552 20.382 C 165.698 20.054, 165 20.270, 165 20.862 C 165 21.453, 164.325 21.678, 163.500 21.362 C 162.675 21.045, 162 21.270, 162 21.862 C 162 22.453, 161.325 22.678, 160.500 22.362 C 159.675 22.045, 159 22.270, 159 22.862 C 159 23.454, 158.252 23.650, 157.336 23.299 C 156.225 22.872, 155.910 23.045, 156.388 23.819 C 156.856 24.575, 156.566 24.771, 155.552 24.382 C 154.696 24.053, 154 24.309, 154 24.952 C 154 25.593, 153.550 25.840, 153 25.500 C 152.450 25.160, 152 25.344, 152 25.910 C 152 26.475, 151.251 26.650, 150.336 26.299 C 149.225 25.872, 148.910 26.045, 149.388 26.819 C 149.842 27.553, 149.583 27.777, 148.681 27.431 C 147.898 27.131, 146.578 27.564, 145.748 28.395 C 144.918 29.225, 143.960 29.626, 143.619 29.286 C 143.279 28.945, 143 29.218, 143 29.892 C 143 30.566, 142.550 30.840, 142 30.500 C 141.450 30.160, 141 30.385, 141 31 C 141 31.615, 140.550 31.840, 140 31.500 C 139.450 31.160, 139 31.385, 139 32 C 139 32.615, 138.550 32.840, 138 32.500 C 137.450 32.160, 137 32.385, 137 33 C 137 33.615, 136.550 33.840, 136 33.500 C 135.450 33.160, 135 33.385, 135 34 C 135 34.615, 134.550 34.840, 134 34.500 C 133.450 34.160, 133 34.434, 133 35.108 C 133 35.782, 132.707 36.040, 132.349 35.682 C 131.991 35.324, 131.057 35.812, 130.275 36.766 C 129.325 37.923, 129.067 38.001, 129.500 37 C 129.933 35.999, 129.675 36.077, 128.725 37.234 C 127.943 38.188, 127.009 38.676, 126.651 38.318 C 126.293 37.960, 126 38.218, 126 38.892 C 126 39.566, 125.578 39.857, 125.061 39.538 C 124.545 39.219, 123.659 39.755, 123.092 40.729 C 122.525 41.703, 122.047 42.076, 122.030 41.559 C 122.014 41.041, 121.292 41.491, 120.426 42.559 C 119.560 43.626, 119.149 43.825, 119.513 43 C 119.876 42.175, 119.195 42.625, 118 44 C 116.805 45.375, 116.124 45.825, 116.487 45 C 116.851 44.175, 116.440 44.374, 115.574 45.441 C 114.708 46.509, 114 47.021, 114 46.580 C 114 46.139, 113.066 46.841, 111.924 48.139 C 110.782 49.438, 110.188 49.849, 110.604 49.053 C 111.698 46.963, 105.059 51.671, 101.666 55.392 C 100.107 57.101, 99.140 57.825, 99.517 57 C 99.895 56.175, 99 56.962, 97.529 58.750 C 96.058 60.537, 94.416 62, 93.880 62 C 93.343 62, 91.745 63.237, 90.327 64.750 C 88.910 66.263, 88.306 66.600, 88.986 65.500 C 89.665 64.400, 87.916 65.975, 85.099 69 C 82.282 72.025, 79.599 74.410, 79.137 74.299 C 78.675 74.189, 76.792 75.652, 74.952 77.549 C 73.113 79.447, 72.033 81.014, 72.554 81.032 C 73.074 81.049, 71.025 83.356, 68 86.158 C 64.975 88.959, 63.400 90.694, 64.500 90.012 C 65.600 89.330, 64.475 90.698, 62 93.053 C 59.525 95.408, 58.175 96.997, 59 96.583 C 59.825 96.170, 58.925 97.257, 57 99 C 55.075 100.743, 54.175 101.873, 55 101.512 C 55.825 101.151, 55.150 102.062, 53.500 103.537 C 51.850 105.013, 51.175 105.859, 52 105.418 C 53.325 104.710, 53.328 104.843, 52.032 106.558 C 51.225 107.626, 49.425 109.545, 48.032 110.822 C 46.639 112.100, 46.096 112.840, 46.824 112.468 C 47.911 111.912, 47.919 112.156, 46.874 113.831 C 46.173 114.953, 45.240 115.648, 44.800 115.376 C 44.088 114.936, 43.832 115.745, 44.085 117.638 C 44.132 117.989, 43.602 118.628, 42.906 119.058 C 42.210 119.488, 41.522 120.651, 41.376 121.643 C 41.231 122.634, 40.524 123.909, 39.806 124.476 C 39.088 125.043, 38.360 126.151, 38.188 126.938 C 38.017 127.726, 37.117 128.995, 36.188 129.759 C 35.050 130.696, 34.989 130.913, 36 130.427 C 36.825 130.030, 36.478 130.699, 35.228 131.913 C 33.978 133.126, 33.217 134.542, 33.537 135.060 C 33.856 135.577, 33.615 136, 33 136 C 32.385 136, 32.138 136.414, 32.450 136.919 C 32.763 137.425, 32.361 138.496, 31.557 139.300 C 30.753 140.104, 30.374 141.040, 30.714 141.381 C 31.055 141.721, 30.782 142, 30.108 142 C 29.434 142, 29.160 142.450, 29.500 143 C 29.840 143.550, 29.615 144, 29 144 C 28.385 144, 28.160 144.450, 28.500 145 C 28.840 145.550, 28.615 146, 28 146 C 27.385 146, 27.160 146.450, 27.500 147 C 27.840 147.550, 27.615 148, 27 148 C 26.385 148, 26.160 148.450, 26.500 149 C 26.840 149.550, 26.593 150, 25.952 150 C 25.309 150, 25.053 150.696, 25.382 151.552 C 25.709 152.406, 25.579 152.858, 25.093 152.558 C 24.027 151.899, 22.762 154.806, 23.556 156.090 C 23.865 156.591, 23.593 157, 22.952 157 C 22.309 157, 22.053 157.696, 22.382 158.552 C 22.771 159.566, 22.575 159.856, 21.819 159.388 C 21.045 158.910, 20.872 159.225, 21.299 160.336 C 21.650 161.252, 21.454 162, 20.862 162 C 20.270 162, 20.054 162.698, 20.382 163.552 C 20.755 164.525, 20.568 164.851, 19.881 164.427 C 19.141 163.969, 19.017 164.479, 19.500 166 C 20.035 167.686, 19.894 168.053, 18.937 167.461 C 18.029 166.900, 17.845 167.153, 18.299 168.336 C 18.650 169.252, 18.454 170, 17.862 170 C 17.270 170, 17.045 170.675, 17.362 171.500 C 17.678 172.325, 17.453 173, 16.862 173 C 16.270 173, 16.045 173.675, 16.362 174.500 C 16.678 175.325, 16.453 176, 15.862 176 C 15.270 176, 15.045 176.675, 15.362 177.500 C 15.678 178.325, 15.471 179, 14.901 179 C 14.300 179, 14.148 179.892, 14.540 181.125 C 15.037 182.691, 14.881 183.045, 13.950 182.469 C 13.029 181.900, 12.838 182.274, 13.249 183.844 C 13.559 185.030, 13.352 186, 12.790 186 C 12.227 186, 12.002 186.900, 12.290 188 C 12.577 189.100, 12.352 190, 11.790 190 C 11.227 190, 11.002 190.901, 11.290 192.001 C 11.619 193.260, 11.419 193.759, 10.751 193.346 C 10.038 192.906, 9.899 193.746, 10.329 195.894 C 10.780 198.151, 10.636 198.893, 9.840 198.401 C 9.069 197.925, 8.869 198.536, 9.211 200.321 C 9.515 201.913, 9.321 202.699, 8.717 202.325 C 8.081 201.932, 7.976 203.058, 8.425 205.454 C 8.950 208.249, 8.823 209.009, 7.925 208.454 C 7.028 207.899, 6.901 208.659, 7.425 211.454 C 7.949 214.243, 7.822 215.008, 6.929 214.456 C 6.027 213.899, 5.898 214.927, 6.406 218.608 C 6.917 222.302, 6.811 223.133, 5.974 222 C 5.144 220.877, 5.019 222.257, 5.479 227.500 C 5.912 232.447, 5.790 234.060, 5.061 233 C 4.338 231.948, 4.047 237.324, 4.086 251 C 4.122 263.887, 4.457 269.822, 5.075 268.500 C 5.700 267.162, 5.812 268.772, 5.413 273.366 C 4.996 278.162, 5.142 280.031, 5.896 279.564 C 6.644 279.102, 6.777 280.346, 6.331 283.605 C 5.878 286.909, 6.013 288.110, 6.783 287.634 C 7.542 287.165, 7.697 288.091, 7.285 290.633 C 6.860 293.253, 7.016 294.108, 7.829 293.606 C 8.638 293.106, 8.784 293.832, 8.329 296.106 C 7.874 298.379, 8.019 299.106, 8.829 298.606 C 9.638 298.106, 9.784 298.832, 9.329 301.106 C 8.858 303.458, 9.006 304.114, 9.884 303.572 C 10.748 303.038, 10.900 303.549, 10.432 305.416 C 10.053 306.923, 10.206 308, 10.798 308 C 11.356 308, 11.577 308.900, 11.290 310 C 11.002 311.100, 11.227 312, 11.790 312 C 12.352 312, 12.559 312.970, 12.249 314.156 C 11.853 315.670, 12.042 316.092, 12.883 315.573 C 13.756 315.033, 13.895 315.572, 13.394 317.565 C 12.940 319.373, 13.065 320.078, 13.761 319.648 C 14.429 319.235, 14.607 319.786, 14.249 321.155 C 13.838 322.726, 14.029 323.100, 14.950 322.531 C 15.892 321.949, 16.032 322.324, 15.500 324 C 14.981 325.635, 15.118 326.045, 16 325.500 C 16.882 324.955, 17.019 325.365, 16.500 327 C 15.981 328.635, 16.118 329.045, 17 328.500 C 17.872 327.961, 18.024 328.349, 17.540 329.875 C 17.148 331.108, 17.300 332, 17.901 332 C 18.471 332, 18.650 332.749, 18.299 333.664 C 17.872 334.775, 18.045 335.090, 18.819 334.612 C 19.575 334.144, 19.771 334.434, 19.382 335.448 C 19.054 336.302, 19.270 337, 19.862 337 C 20.454 337, 20.650 337.748, 20.299 338.664 C 19.872 339.775, 20.045 340.090, 20.819 339.612 C 21.575 339.144, 21.771 339.434, 21.382 340.448 C 21.053 341.304, 21.309 342, 21.952 342 C 22.593 342, 22.861 342.416, 22.546 342.925 C 21.833 344.079, 23.999 349, 25.220 349 C 25.714 349, 25.865 349.409, 25.556 349.910 C 24.762 351.194, 26.027 354.101, 27.093 353.442 C 27.579 353.142, 27.709 353.594, 27.382 354.448 C 27.053 355.304, 27.309 356, 27.952 356 C 28.593 356, 28.840 356.450, 28.500 357 C 28.160 357.550, 28.359 358, 28.941 358 C 29.523 358, 29.893 358.338, 29.762 358.750 C 29.361 360.015, 32.183 366, 33.180 366 C 33.696 366, 33.850 366.434, 33.523 366.964 C 33.195 367.493, 33.843 368.843, 34.964 369.964 C 36.084 371.084, 37.005 372.337, 37.012 372.750 C 37.047 374.936, 38.279 376.945, 39.227 376.360 C 39.859 375.969, 40.022 376.156, 39.618 376.809 C 39.238 377.424, 39.731 378.768, 40.714 379.797 C 41.696 380.825, 42.637 382.304, 42.805 383.083 C 42.973 383.862, 43.753 384.994, 44.539 385.599 C 45.326 386.203, 45.738 386.929, 45.455 387.212 C 45.172 387.494, 46.260 389.137, 47.872 390.863 C 49.484 392.588, 50.572 394, 50.290 394 C 50.009 394, 50.841 394.934, 52.139 396.076 C 53.438 397.218, 53.825 397.855, 53 397.492 C 52.175 397.129, 53.075 398.257, 55 400 C 56.925 401.743, 57.825 402.868, 57 402.500 C 56.175 402.132, 56.868 403.107, 58.539 404.666 C 60.210 406.225, 60.885 407.114, 60.039 406.642 C 59.193 406.169, 60.750 407.938, 63.500 410.572 C 66.250 413.206, 67.600 414.730, 66.500 413.958 C 65.400 413.187, 69.675 417.825, 76 424.265 C 87.256 435.728, 89.513 437.777, 86.996 434.250 C 86.309 433.288, 87.641 434.525, 89.956 437 C 92.271 439.475, 93.843 440.825, 93.451 440 C 93.058 439.175, 94.176 440.075, 95.937 442 C 97.697 443.925, 98.832 444.825, 98.459 444 C 98.086 443.175, 98.987 443.850, 100.463 445.500 C 101.938 447.150, 102.838 447.825, 102.463 447 C 102.087 446.175, 102.987 446.850, 104.463 448.500 C 105.938 450.150, 106.848 450.825, 106.486 450 C 106.123 449.175, 106.653 449.440, 107.663 450.589 C 110.196 453.470, 116.550 457.755, 115.606 455.947 C 115.191 455.151, 115.560 455.374, 116.426 456.441 C 117.292 457.509, 118 457.985, 118 457.500 C 118 457.015, 118.661 457.491, 119.468 458.559 C 120.276 459.626, 120.951 460.162, 120.968 459.750 C 120.986 459.337, 121.916 459.916, 123.036 461.036 C 124.157 462.157, 125.507 462.805, 126.036 462.477 C 126.566 462.150, 127 462.385, 127 463 C 127 463.615, 127.450 463.840, 128 463.500 C 128.550 463.160, 129 463.343, 129 463.906 C 129 464.469, 129.954 465.440, 131.121 466.065 C 132.830 466.979, 133.106 466.938, 132.547 465.850 C 132.164 465.107, 132.448 465.218, 133.176 466.096 C 134.917 468.196, 140.574 471.092, 141.373 470.293 C 141.718 469.949, 142 470.218, 142 470.892 C 142 471.566, 142.450 471.840, 143 471.500 C 143.550 471.160, 144 471.407, 144 472.048 C 144 472.691, 144.696 472.947, 145.552 472.618 C 146.406 472.291, 146.858 472.421, 146.558 472.907 C 145.899 473.973, 148.806 475.238, 150.090 474.444 C 150.591 474.135, 151 474.286, 151 474.780 C 151 475.841, 156.035 478.298, 156.748 477.585 C 157.018 477.316, 157.918 477.775, 158.748 478.605 C 159.578 479.436, 160.875 479.878, 161.629 479.589 C 162.383 479.300, 163 479.547, 163 480.138 C 163 480.730, 163.698 480.946, 164.552 480.618 C 165.566 480.229, 165.856 480.425, 165.388 481.181 C 164.910 481.955, 165.225 482.128, 166.336 481.701 C 167.258 481.347, 168 481.547, 168 482.148 C 168 482.745, 168.901 482.998, 170.001 482.710 C 171.262 482.380, 171.759 482.581, 171.345 483.251 C 170.924 483.933, 171.462 484.112, 172.845 483.751 C 174.228 483.389, 174.766 483.569, 174.345 484.251 C 173.924 484.933, 174.462 485.112, 175.845 484.751 C 177.228 484.389, 177.766 484.569, 177.345 485.251 C 176.924 485.933, 177.462 486.112, 178.844 485.751 C 180.030 485.441, 181 485.625, 181 486.161 C 181 486.699, 181.951 486.833, 183.125 486.460 C 184.682 485.966, 185.043 486.121, 184.476 487.039 C 183.894 487.980, 184.381 488.121, 186.435 487.606 C 188.428 487.105, 188.967 487.244, 188.427 488.117 C 187.908 488.958, 188.330 489.147, 189.845 488.751 C 191.226 488.390, 191.766 488.569, 191.346 489.249 C 190.906 489.962, 191.746 490.101, 193.894 489.671 C 196.151 489.220, 196.893 489.364, 196.401 490.160 C 195.924 490.932, 196.542 491.130, 198.351 490.784 C 199.808 490.505, 201 490.721, 201 491.264 C 201 491.830, 202.299 491.990, 204.050 491.640 C 206.129 491.224, 206.884 491.378, 206.423 492.124 C 205.950 492.889, 207.064 493.017, 210.123 492.550 C 213.511 492.033, 214.161 492.140, 213 493.023 C 211.837 493.908, 212.580 494.037, 216.302 493.595 C 219.713 493.189, 220.903 493.349, 220.410 494.145 C 219.912 494.952, 221.367 495.076, 225.609 494.589 C 229.031 494.196, 230.965 494.276, 230.223 494.782 C 229.480 495.288, 237.323 495.651, 249 495.651 C 260.677 495.651, 268.520 495.288, 267.777 494.782 C 267.035 494.276, 268.969 494.196, 272.391 494.589 C 276.633 495.076, 278.088 494.952, 277.590 494.145 C 277.095 493.345, 278.246 493.209, 281.605 493.669 C 285.180 494.160, 286.131 494.021, 285.558 493.094 C 284.988 492.172, 285.721 492.045, 288.546 492.575 C 291.341 493.099, 292.101 492.972, 291.546 492.075 C 290.991 491.177, 291.751 491.050, 294.546 491.575 C 297.303 492.092, 298.097 491.966, 297.561 491.098 C 297.035 490.248, 297.593 490.111, 299.565 490.606 C 301.479 491.086, 302.089 490.953, 301.599 490.161 C 301.107 489.364, 301.848 489.220, 304.106 489.671 C 306.545 490.159, 307.124 490.010, 306.530 489.049 C 305.956 488.119, 306.310 487.964, 307.875 488.460 C 309.049 488.833, 310 488.699, 310 488.161 C 310 487.625, 310.970 487.441, 312.156 487.751 C 313.726 488.162, 314.100 487.971, 313.531 487.050 C 312.955 486.119, 313.309 485.963, 314.875 486.460 C 316.049 486.833, 317 486.699, 317 486.161 C 317 485.625, 317.970 485.441, 319.156 485.751 C 320.726 486.162, 321.100 485.971, 320.531 485.050 C 319.955 484.119, 320.309 483.963, 321.875 484.460 C 323.108 484.852, 324 484.700, 324 484.099 C 324 483.529, 324.675 483.322, 325.500 483.638 C 326.325 483.955, 327 483.730, 327 483.138 C 327 482.547, 327.675 482.322, 328.500 482.638 C 329.325 482.955, 330 482.730, 330 482.138 C 330 481.547, 330.675 481.322, 331.500 481.638 C 332.325 481.955, 333 481.689, 333 481.048 C 333 480.407, 333.450 480.160, 334 480.500 C 334.550 480.840, 335 480.656, 335 480.090 C 335 479.525, 335.675 479.322, 336.500 479.638 C 337.325 479.955, 338 479.730, 338 479.138 C 338 478.546, 338.748 478.350, 339.664 478.701 C 340.880 479.168, 341.105 478.979, 340.500 478 C 339.895 477.021, 340.120 476.832, 341.336 477.299 C 342.251 477.650, 343 477.475, 343 476.910 C 343 476.344, 343.409 476.135, 343.910 476.444 C 345.194 477.238, 348.101 475.973, 347.442 474.907 C 347.142 474.421, 347.536 474.269, 348.319 474.569 C 349.102 474.869, 350.422 474.436, 351.252 473.605 C 352.082 472.775, 353.040 472.374, 353.381 472.714 C 353.721 473.055, 354 472.782, 354 472.108 C 354 471.434, 354.450 471.160, 355 471.500 C 355.550 471.840, 356 471.615, 356 471 C 356 470.385, 356.450 470.160, 357 470.500 C 357.550 470.840, 358 470.615, 358 470 C 358 469.385, 358.450 469.160, 359 469.500 C 359.550 469.840, 360 469.615, 360 469 C 360 468.385, 360.450 468.160, 361 468.500 C 361.550 468.840, 362 468.615, 362 468 C 362 467.385, 362.450 467.160, 363 467.500 C 363.550 467.840, 364 467.615, 364 467 C 364 466.385, 364.450 466.160, 365 466.500 C 365.550 466.840, 366 466.566, 366 465.892 C 366 465.218, 366.293 464.960, 366.651 465.318 C 367.009 465.676, 367.943 465.188, 368.725 464.234 C 369.675 463.077, 369.933 462.999, 369.500 464 C 369.067 465.001, 369.325 464.923, 370.275 463.766 C 371.057 462.812, 371.991 462.324, 372.349 462.682 C 372.707 463.040, 373 462.782, 373 462.108 C 373 461.434, 373.403 461.131, 373.895 461.435 C 374.388 461.740, 375.073 461.252, 375.419 460.351 C 375.764 459.451, 376.329 458.996, 376.675 459.341 C 377.020 459.686, 377.943 459.188, 378.725 458.234 C 379.675 457.077, 379.933 456.999, 379.500 458 C 378.924 459.333, 378.999 459.333, 380.179 458 C 380.910 457.175, 382.181 456.363, 383.004 456.195 C 383.827 456.027, 385.082 455.127, 385.793 454.195 C 386.504 453.263, 387.533 452.500, 388.080 452.500 C 388.626 452.500, 389.500 451.825, 390.021 451 C 390.543 450.175, 390.991 449.950, 391.016 450.500 C 391.042 451.050, 391.724 450.626, 392.532 449.559 C 393.339 448.491, 394.002 448.041, 394.005 448.559 C 394.008 449.076, 395.165 448.150, 396.577 446.500 C 397.989 444.850, 398.828 444.175, 398.440 445 C 398.053 445.825, 399.195 444.925, 400.979 443 C 402.762 441.075, 403.672 440.400, 403.001 441.500 C 402.329 442.600, 403.703 441.475, 406.054 439 C 408.405 436.525, 409.755 435.400, 409.055 436.500 C 408.356 437.600, 409.883 436.250, 412.450 433.500 C 415.016 430.750, 417.470 428.589, 417.901 428.698 C 418.333 428.806, 420.669 426.781, 423.093 424.198 L 427.500 419.500 422.981 423.500 C 420.496 425.700, 422.770 423.225, 428.034 418 C 437.714 408.391, 445.755 398.916, 443 400.364 C 442.175 400.798, 442.625 400.159, 444 398.944 C 445.375 397.729, 446.388 396.345, 446.250 395.868 C 446.113 395.390, 446.419 395, 446.932 395 C 447.444 395, 448.883 393.569, 450.129 391.819 C 451.453 389.959, 451.793 388.953, 450.947 389.396 C 450.151 389.812, 450.562 389.218, 451.861 388.076 C 453.159 386.934, 453.861 386, 453.420 386 C 452.979 386, 453.491 385.292, 454.559 384.426 C 455.626 383.560, 455.825 383.143, 455 383.500 C 454.175 383.857, 454.374 383.440, 455.441 382.574 C 456.509 381.708, 456.959 380.986, 456.441 380.970 C 455.924 380.953, 456.297 380.475, 457.271 379.908 C 458.245 379.341, 458.781 378.455, 458.462 377.939 C 458.143 377.422, 458.434 377, 459.108 377 C 459.782 377, 460.071 376.737, 459.750 376.417 C 459.429 376.096, 460.046 374.954, 461.120 373.880 C 462.194 372.806, 462.805 371.493, 462.477 370.964 C 462.150 370.434, 462.434 370, 463.108 370 C 463.782 370, 464.040 369.707, 463.682 369.349 C 463.324 368.991, 463.812 368.057, 464.766 367.275 C 465.719 366.492, 465.943 366.133, 465.261 366.478 C 464.447 366.889, 464.226 366.574, 464.616 365.558 C 464.943 364.707, 465.547 364.220, 465.959 364.474 C 467.027 365.135, 469.159 360.067, 468.358 358.771 C 467.985 358.167, 468.154 357.977, 468.741 358.340 C 470.001 359.119, 471.281 356.264, 470.349 354.755 C 469.931 354.079, 470.174 353.990, 471.015 354.510 C 471.977 355.104, 472.165 354.872, 471.701 353.664 C 471.337 352.714, 471.550 352, 472.198 352 C 472.822 352, 473.055 351.721, 472.714 351.381 C 472.374 351.040, 472.775 350.082, 473.605 349.252 C 474.436 348.422, 474.869 347.102, 474.569 346.319 C 474.223 345.417, 474.447 345.158, 475.181 345.612 C 475.955 346.090, 476.128 345.775, 475.701 344.664 C 475.350 343.748, 475.546 343, 476.138 343 C 476.730 343, 476.946 342.302, 476.618 341.448 C 476.229 340.434, 476.425 340.144, 477.181 340.612 C 477.955 341.090, 478.128 340.775, 477.701 339.664 C 477.350 338.748, 477.546 338, 478.138 338 C 478.730 338, 478.946 337.302, 478.618 336.448 C 478.229 335.434, 478.425 335.144, 479.181 335.612 C 479.955 336.090, 480.128 335.775, 479.701 334.664 C 479.350 333.749, 479.529 333, 480.099 333 C 480.700 333, 480.852 332.108, 480.460 330.875 C 479.960 329.300, 480.117 328.954, 481.063 329.539 C 481.971 330.100, 482.155 329.847, 481.701 328.664 C 481.350 327.749, 481.529 327, 482.099 327 C 482.700 327, 482.852 326.108, 482.460 324.875 C 481.963 323.309, 482.119 322.955, 483.050 323.531 C 483.971 324.100, 484.162 323.726, 483.751 322.155 C 483.389 320.772, 483.569 320.234, 484.251 320.655 C 484.933 321.076, 485.112 320.538, 484.751 319.156 C 484.441 317.970, 484.648 317, 485.210 317 C 485.773 317, 485.998 316.100, 485.710 315 C 485.423 313.900, 485.625 313, 486.161 313 C 486.699 313, 486.833 312.049, 486.460 310.875 C 485.964 309.310, 486.119 308.956, 487.049 309.530 C 488.010 310.124, 488.159 309.545, 487.671 307.106 C 487.220 304.848, 487.364 304.107, 488.161 304.599 C 488.953 305.089, 489.086 304.479, 488.606 302.565 C 488.106 300.573, 488.244 300.033, 489.116 300.572 C 489.994 301.114, 490.142 300.458, 489.671 298.106 C 489.216 295.832, 489.362 295.106, 490.171 295.606 C 490.984 296.108, 491.140 295.253, 490.715 292.633 C 490.304 290.101, 490.459 289.166, 491.212 289.631 C 491.974 290.102, 492.100 289.029, 491.629 286.080 C 491.143 283.041, 491.272 282.050, 492.088 282.554 C 492.911 283.063, 493.039 281.777, 492.553 277.878 C 492.185 274.920, 492.247 273.020, 492.692 273.655 C 493.136 274.290, 493.500 264.095, 493.500 251 C 493.500 237.906, 493.143 227.711, 492.706 228.346 C 492.269 228.981, 492.188 226.800, 492.525 223.500 C 492.992 218.930, 492.869 217.857, 492.010 219 C 491.144 220.152, 491.037 219.485, 491.550 216.123 C 492.043 212.896, 491.910 211.937, 491.045 212.472 C 490.184 213.004, 490.059 212.202, 490.575 209.454 C 491.074 206.793, 490.952 205.912, 490.153 206.405 C 489.366 206.892, 489.222 206.141, 489.671 203.894 C 490.142 201.542, 489.994 200.886, 489.116 201.428 C 488.252 201.962, 488.100 201.451, 488.568 199.584 C 488.978 197.950, 488.802 197, 488.089 197 C 487.369 197, 487.202 196.043, 487.627 194.351 C 488.106 192.440, 487.961 191.906, 487.106 192.435 C 486.246 192.966, 486.109 192.415, 486.606 190.435 C 487.121 188.381, 486.980 187.894, 486.039 188.476 C 485.121 189.043, 484.966 188.682, 485.460 187.125 C 485.833 185.951, 485.699 185, 485.161 185 C 484.625 185, 484.441 184.030, 484.751 182.844 C 485.162 181.274, 484.971 180.900, 484.050 181.469 C 483.119 182.045, 482.963 181.691, 483.460 180.125 C 483.852 178.892, 483.700 178, 483.099 178 C 482.529 178, 482.322 177.325, 482.638 176.500 C 482.955 175.675, 482.730 175, 482.138 175 C 481.546 175, 481.350 174.252, 481.701 173.336 C 482.155 172.153, 481.971 171.900, 481.063 172.461 C 480.117 173.046, 479.960 172.700, 480.460 171.125 C 480.852 169.892, 480.700 169, 480.099 169 C 479.529 169, 479.350 168.251, 479.701 167.336 C 480.168 166.120, 479.979 165.895, 479 166.500 C 478.021 167.105, 477.832 166.880, 478.299 165.664 C 478.650 164.749, 478.515 164, 478 164 C 477.485 164, 477.322 163.325, 477.638 162.500 C 477.955 161.675, 477.730 161, 477.138 161 C 476.546 161, 476.350 160.252, 476.701 159.336 C 477.128 158.225, 476.955 157.910, 476.181 158.388 C 475.425 158.856, 475.229 158.566, 475.618 157.552 C 475.947 156.696, 475.691 156, 475.048 156 C 474.407 156, 474.160 155.550, 474.500 155 C 474.840 154.450, 474.615 154, 474 154 C 473.385 154, 473.160 153.550, 473.500 153 C 473.840 152.450, 473.656 152, 473.090 152 C 472.525 152, 472.350 151.251, 472.701 150.336 C 473.131 149.217, 472.957 148.909, 472.170 149.395 C 470.950 150.149, 470.900 150.048, 470.499 146.042 C 470.364 144.690, 469.743 143.414, 469.120 143.207 C 468.497 142.999, 468.242 142.418, 468.553 141.915 C 468.864 141.412, 468.615 141, 468 141 C 467.385 141, 467.160 140.550, 467.500 140 C 467.840 139.450, 467.615 139, 467 139 C 466.385 139, 466.138 138.586, 466.450 138.081 C 466.763 137.575, 466.452 136.552, 465.759 135.807 C 465.067 135.062, 464.363 133.788, 464.195 132.976 C 464.027 132.164, 463.247 131.006, 462.461 130.401 C 461.674 129.797, 461.324 129.009, 461.682 128.651 C 462.040 128.293, 461.733 128, 461 128 C 460.267 128, 459.960 127.707, 460.318 127.349 C 460.676 126.991, 460.188 126.057, 459.234 125.275 C 458.088 124.334, 458.008 124.076, 459 124.513 C 459.825 124.876, 459.375 124.195, 458 123 C 456.625 121.805, 456.175 121.124, 457 121.487 C 457.992 121.924, 457.912 121.666, 456.766 120.725 C 455.812 119.943, 455.324 119.009, 455.682 118.651 C 456.040 118.293, 455.782 118, 455.108 118 C 454.434 118, 454.132 117.596, 454.437 117.102 C 454.743 116.608, 453.689 114.808, 452.095 113.102 C 450.501 111.396, 449.491 109.990, 449.849 109.978 C 450.207 109.966, 449.375 109.026, 448 107.891 C 446.625 106.755, 446.175 106.140, 447 106.523 C 447.825 106.906, 447.354 106.158, 445.953 104.860 C 444.552 103.562, 444.102 102.887, 444.953 103.361 C 445.804 103.834, 444.925 102.762, 443 100.979 C 441.075 99.195, 440.175 98.093, 441 98.529 C 443.034 99.605, 438.831 94.684, 432.007 88 C 428.918 84.975, 427.541 83.387, 428.946 84.471 C 430.351 85.556, 427.459 82.293, 422.521 77.221 C 413.489 67.946, 409.621 64.715, 416.047 71.815 C 417.946 73.913, 417.090 73.125, 414.144 70.065 C 411.198 67.004, 408.385 64.613, 407.894 64.750 C 407.402 64.888, 407.112 64.458, 407.250 63.795 C 407.387 63.133, 406.988 62.570, 406.363 62.545 C 405.737 62.520, 404.240 61.375, 403.037 60 C 401.833 58.625, 401.146 58.175, 401.511 59 C 401.875 59.825, 401.260 59.375, 400.144 58 C 399.028 56.625, 397.658 55.500, 397.100 55.500 C 396.542 55.500, 395.358 54.600, 394.469 53.500 C 393.579 52.400, 393.204 52.171, 393.634 52.992 C 394.065 53.812, 392.703 52.770, 390.608 50.675 C 388.514 48.580, 386.552 47.115, 386.249 47.418 C 385.946 47.721, 385.057 47.188, 384.275 46.234 C 383.334 45.088, 383.076 45.008, 383.513 46 C 383.876 46.825, 383.341 46.482, 382.324 45.238 C 381.306 43.994, 379.422 42.774, 378.137 42.526 C 376.852 42.279, 374.742 40.934, 373.448 39.538 C 372.154 38.142, 370.737 36.966, 370.298 36.923 C 367.324 36.638, 365.487 35.960, 365.178 35.033 C 364.692 33.577, 359.156 30.786, 358.075 31.453 C 357.599 31.748, 356.934 31.269, 356.596 30.391 C 356.247 29.479, 355.342 29.039, 354.492 29.365 C 353.671 29.680, 353 29.426, 353 28.802 C 353 28.178, 352.721 27.945, 352.381 28.286 C 352.040 28.626, 351.082 28.225, 350.252 27.395 C 349.422 26.564, 348.102 26.131, 347.319 26.431 C 346.536 26.731, 346.142 26.579, 346.442 26.093 C 347.101 25.027, 344.194 23.762, 342.910 24.556 C 342.409 24.865, 342 24.593, 342 23.952 C 342 23.311, 341.325 23.045, 340.500 23.362 C 339.675 23.678, 339 23.453, 339 22.862 C 339 22.270, 338.302 22.054, 337.448 22.382 C 336.475 22.755, 336.149 22.568, 336.573 21.881 C 337.031 21.141, 336.521 21.017, 335 21.500 C 333.314 22.035, 332.947 21.894, 333.539 20.937 C 334.100 20.029, 333.847 19.845, 332.664 20.299 C 331.748 20.650, 331 20.454, 331 19.862 C 331 19.270, 330.325 19.045, 329.500 19.362 C 328.675 19.678, 328 19.453, 328 18.862 C 328 18.270, 327.325 18.045, 326.500 18.362 C 325.675 18.678, 325 18.449, 325 17.852 C 325 17.255, 324.099 17.002, 322.999 17.290 C 321.738 17.620, 321.241 17.419, 321.655 16.749 C 322.076 16.067, 321.538 15.888, 320.155 16.249 C 318.786 16.607, 318.235 16.429, 318.648 15.761 C 319.078 15.065, 318.373 14.940, 316.565 15.394 C 314.572 15.895, 314.033 15.756, 314.573 14.883 C 315.092 14.042, 314.670 13.853, 313.155 14.249 C 311.786 14.607, 311.235 14.429, 311.648 13.761 C 312.078 13.065, 311.373 12.940, 309.565 13.394 C 307.573 13.894, 307.033 13.756, 307.572 12.884 C 308.114 12.006, 307.458 11.858, 305.106 12.329 C 302.848 12.780, 302.107 12.636, 302.599 11.839 C 303.089 11.047, 302.479 10.914, 300.565 11.394 C 298.573 11.894, 298.033 11.756, 298.572 10.884 C 299.113 10.008, 298.467 9.857, 296.155 10.319 C 294.145 10.721, 293 10.551, 293 9.850 C 293 9.157, 291.871 8.976, 289.950 9.360 C 287.799 9.790, 287.109 9.633, 287.607 8.828 C 288.118 8.001, 287.013 7.863, 283.605 8.331 C 280.297 8.784, 279.099 8.649, 279.576 7.877 C 280.057 7.099, 278.679 6.973, 274.878 7.447 C 271.920 7.815, 270.020 7.753, 270.655 7.308 C 271.289 6.864, 261.545 6.500, 249 6.500 C 236.455 6.500, 226.711 6.848, 227.345 7.273 M 75.437 78.250 L 72.500 81.500 75.750 78.563 C 77.537 76.948, 79 75.485, 79 75.313 C 79 74.540, 78.175 75.221, 75.437 78.250 M 148 206.860 C 148 244.734, 147.704 277.879, 147.343 280.517 C 146.818 284.341, 146.952 285.148, 148 284.500 C 149.050 283.851, 149.192 284.734, 148.701 288.876 C 148.264 292.562, 148.409 293.865, 149.199 293.377 C 149.977 292.896, 150.132 293.798, 149.715 296.367 C 149.303 298.906, 149.458 299.835, 150.215 299.367 C 150.970 298.901, 151.112 299.689, 150.671 301.894 C 150.220 304.152, 150.364 304.893, 151.161 304.401 C 151.953 303.911, 152.086 304.521, 151.606 306.435 C 151.105 308.428, 151.244 308.967, 152.117 308.427 C 152.958 307.908, 153.147 308.330, 152.751 309.844 C 152.441 311.030, 152.625 312, 153.161 312 C 153.699 312, 153.833 312.951, 153.460 314.125 C 152.960 315.700, 153.117 316.046, 154.063 315.461 C 154.971 314.900, 155.155 315.153, 154.701 316.336 C 154.350 317.252, 154.546 318, 155.138 318 C 155.730 318, 155.946 318.698, 155.618 319.552 C 155.229 320.566, 155.425 320.856, 156.181 320.388 C 156.955 319.910, 157.128 320.225, 156.701 321.336 C 156.350 322.252, 156.546 323, 157.138 323 C 157.730 323, 157.948 323.692, 157.624 324.538 C 157.289 325.411, 157.672 326.321, 158.511 326.643 C 159.324 326.954, 159.740 327.612, 159.435 328.105 C 159.131 328.597, 159.385 329, 160 329 C 160.615 329, 160.840 329.450, 160.500 330 C 160.160 330.550, 160.385 331, 161 331 C 161.615 331, 161.869 331.403, 161.565 331.895 C 161.260 332.388, 161.748 333.073, 162.649 333.419 C 163.549 333.764, 164.016 334.317, 163.686 334.648 C 163.355 334.978, 164.078 336.127, 165.293 337.200 C 166.507 338.274, 166.825 338.834, 166 338.444 C 165.175 338.055, 166.075 339.195, 168 340.979 C 169.925 342.762, 170.600 343.619, 169.500 342.883 C 168.400 342.148, 170.200 344.338, 173.500 347.752 C 179.472 353.929, 181.461 355.585, 178.903 352.250 C 177.354 350.231, 182.596 354.504, 185.337 357.495 C 186.347 358.598, 186.854 358.891, 186.464 358.146 C 185.980 357.223, 186.589 357.340, 188.377 358.511 C 189.820 359.457, 191 360.628, 191 361.115 C 191 361.602, 191.338 361.893, 191.750 361.762 C 192.950 361.382, 199 364.158, 199 365.090 C 199 365.556, 199.749 365.650, 200.664 365.299 C 201.775 364.872, 202.090 365.045, 201.612 365.819 C 201.155 366.558, 201.421 366.776, 202.345 366.421 C 203.143 366.115, 204.390 366.502, 205.118 367.281 C 205.846 368.060, 207.312 368.470, 208.377 368.191 C 209.755 367.831, 210.088 368.049, 209.531 368.950 C 208.955 369.881, 209.309 370.037, 210.875 369.540 C 212.108 369.148, 213 369.300, 213 369.901 C 213 370.471, 213.675 370.678, 214.500 370.362 C 215.325 370.045, 216 370.273, 216 370.868 C 216 371.549, 217.170 371.716, 219.155 371.319 C 221.389 370.872, 222.105 371.021, 221.606 371.829 C 221.106 372.638, 221.832 372.784, 224.106 372.329 C 226.336 371.883, 227.102 372.026, 226.623 372.801 C 226.135 373.591, 227.437 373.736, 231.124 373.299 C 234.410 372.910, 236.091 373.044, 235.708 373.664 C 235.325 374.283, 239.713 374.657, 247.629 374.679 C 255.671 374.702, 259.680 374.379, 258.828 373.779 C 257.972 373.176, 259.721 373.016, 263.750 373.327 C 268.012 373.657, 269.792 373.473, 269.345 372.749 C 268.905 372.037, 269.897 371.884, 272.367 372.285 C 274.906 372.697, 275.835 372.542, 275.367 371.785 C 274.901 371.030, 275.689 370.888, 277.894 371.329 C 280.170 371.784, 280.895 371.639, 280.393 370.827 C 279.914 370.052, 280.381 369.866, 281.845 370.249 C 283.228 370.611, 283.766 370.431, 283.345 369.749 C 282.924 369.067, 283.462 368.888, 284.844 369.249 C 286.030 369.559, 287 369.375, 287 368.839 C 287 368.301, 287.951 368.167, 289.125 368.540 C 290.700 369.040, 291.046 368.883, 290.461 367.937 C 289.900 367.029, 290.153 366.845, 291.336 367.299 C 292.252 367.650, 293 367.454, 293 366.862 C 293 366.270, 293.675 366.045, 294.500 366.362 C 295.325 366.678, 296 366.475, 296 365.910 C 296 365.344, 296.450 365.160, 297 365.500 C 297.550 365.840, 298 365.593, 298 364.952 C 298 364.309, 298.696 364.053, 299.552 364.382 C 300.566 364.771, 300.856 364.575, 300.388 363.819 C 299.905 363.038, 300.231 362.875, 301.388 363.319 C 302.332 363.681, 302.858 363.579, 302.558 363.093 C 302.257 362.607, 302.707 361.943, 303.558 361.616 C 304.433 361.280, 304.842 361.447, 304.500 362 C 304.158 362.553, 304.567 362.720, 305.442 362.384 C 306.293 362.057, 306.795 361.478, 306.559 361.095 C 306.323 360.713, 307.047 359.827, 308.169 359.126 C 309.844 358.080, 310.086 358.089, 309.518 359.176 C 309.138 359.904, 309.805 359.375, 311 358 C 312.195 356.625, 312.860 356.175, 312.477 357 C 312.094 357.825, 312.842 357.354, 314.140 355.953 C 315.438 354.552, 316.050 354.079, 315.500 354.902 C 314.327 356.656, 330.791 340.292, 333 337.507 C 334.333 335.826, 334.333 335.703, 333 336.395 C 332.175 336.823, 332.625 336.195, 334 335 C 335.375 333.805, 335.825 333.124, 335 333.487 C 334.008 333.924, 334.088 333.666, 335.234 332.725 C 336.188 331.943, 336.676 331.009, 336.318 330.651 C 335.960 330.293, 336.192 330, 336.833 330 C 337.475 330, 337.947 329.663, 337.882 329.250 C 337.579 327.335, 338.084 325.934, 338.895 326.435 C 339.388 326.740, 340.057 326.293, 340.384 325.442 C 340.724 324.557, 340.555 324.157, 339.989 324.507 C 338.471 325.445, 338.815 324.328, 340.590 322.553 C 341.465 321.678, 342.313 319.751, 342.476 318.269 C 342.638 316.788, 343.225 315.425, 343.780 315.240 C 344.334 315.055, 344.540 313.955, 344.236 312.796 C 343.837 311.267, 344.033 310.902, 344.950 311.469 C 345.881 312.045, 346.037 311.691, 345.540 310.125 C 345.167 308.951, 345.301 308, 345.839 308 C 346.375 308, 346.559 307.030, 346.249 305.844 C 345.853 304.330, 346.042 303.908, 346.883 304.427 C 347.749 304.963, 347.901 304.452, 347.432 302.584 C 347.022 300.950, 347.198 300, 347.911 300 C 348.631 300, 348.798 299.043, 348.373 297.351 C 347.919 295.540, 348.057 294.917, 348.811 295.383 C 349.588 295.864, 349.732 294.535, 349.299 290.876 C 348.808 286.734, 348.950 285.851, 350 286.500 C 351.002 287.119, 351.162 286.739, 350.671 284.906 C 350.317 283.583, 350.021 249.988, 350.014 210.250 L 350 138 325 138 L 300 138 300 208.559 C 300 258.718, 299.689 278.926, 298.923 278.452 C 298.175 277.990, 298.063 279.237, 298.558 282.536 C 299.068 285.938, 298.952 287.089, 298.150 286.593 C 297.367 286.109, 297.223 286.865, 297.671 289.106 C 298.159 291.545, 298.010 292.124, 297.049 291.530 C 296.119 290.956, 295.964 291.310, 296.460 292.875 C 296.852 294.108, 296.700 295, 296.099 295 C 295.529 295, 295.322 295.675, 295.638 296.500 C 295.955 297.325, 295.689 298, 295.048 298 C 294.407 298, 294.135 298.409, 294.444 298.910 C 295.305 300.303, 293.929 303.074, 292.741 302.340 C 292.107 301.948, 291.990 302.175, 292.446 302.912 C 292.888 303.628, 292.434 304.713, 291.350 305.535 C 290.333 306.306, 289.887 306.951, 290.361 306.968 C 290.834 306.986, 290.159 307.934, 288.861 309.076 C 287.562 310.218, 287.175 310.823, 288 310.422 C 288.825 310.020, 288.150 311.151, 286.500 312.937 C 282.815 316.924, 277.326 320.994, 278.394 318.947 C 278.809 318.151, 278.440 318.374, 277.574 319.441 C 276.708 320.509, 276 320.985, 276 320.500 C 276 320.015, 275.393 320.447, 274.652 321.462 C 273.910 322.476, 272.785 322.985, 272.152 322.594 C 271.518 322.202, 271 322.407, 271 323.048 C 271 323.689, 270.325 323.955, 269.500 323.638 C 268.675 323.322, 268 323.529, 268 324.099 C 268 324.700, 267.108 324.852, 265.875 324.460 C 264.324 323.968, 263.958 324.122, 264.519 325.031 C 265.108 325.984, 264.372 326.118, 261.395 325.601 C 259.224 325.225, 258.046 325.296, 258.734 325.762 C 259.432 326.235, 255.452 326.577, 249.580 326.549 C 243.866 326.522, 239.417 326.134, 239.694 325.686 C 239.971 325.239, 238.513 325.188, 236.454 325.575 C 233.592 326.111, 232.892 325.984, 233.481 325.031 C 234.049 324.112, 233.661 323.973, 232 324.500 C 230.479 324.983, 229.969 324.859, 230.427 324.119 C 230.851 323.432, 230.525 323.245, 229.552 323.618 C 228.696 323.947, 228 323.691, 228 323.048 C 228 322.407, 227.559 322.154, 227.021 322.487 C 225.757 323.268, 222.050 321.340, 219.500 318.574 C 218.400 317.382, 217.942 317.102, 218.482 317.953 C 219.023 318.804, 216.863 316.929, 213.682 313.786 C 210.501 310.644, 207.701 307.045, 207.459 305.790 C 207.218 304.534, 206.563 303.354, 206.004 303.168 C 205.445 302.982, 205.242 302.418, 205.553 301.915 C 205.864 301.412, 205.615 301, 205 301 C 204.385 301, 204.160 300.550, 204.500 300 C 204.840 299.450, 204.593 299, 203.952 299 C 203.311 299, 203.045 298.325, 203.362 297.500 C 203.678 296.675, 203.471 296, 202.901 296 C 202.300 296, 202.148 295.108, 202.540 293.875 C 203.024 292.349, 202.872 291.961, 202 292.500 C 201.128 293.039, 200.976 292.651, 201.460 291.125 C 201.854 289.884, 201.700 289, 201.090 289 C 200.516 289, 200.089 287.313, 200.142 285.250 C 200.194 283.188, 200.197 249.213, 200.149 209.750 L 200.061 138 174.030 138 L 148 138 148 206.860 M 351.472 204.500 C 351.472 241.350, 351.597 256.280, 351.750 237.677 C 351.902 219.075, 351.902 188.925, 351.749 170.677 C 351.597 152.430, 351.472 167.650, 351.472 204.500" stroke="none" fill="#044b2b" fill-rule="evenodd"/></svg>